<?xml version="1.0" encoding="UTF-8" standalone="no"?>
<!-- Created with Inkscape (http://www.inkscape.org/) -->

<svg
   width="48"
   height="48"
   viewBox="0 0 48 48"
   version="1.1"
   id="svg5"
   inkscape:version="1.2 (1:1.2.1+202207142221+cd75a1ee6d)"
   sodipodi:docname="favicon.svg"
   inkscape:export-filename="favicon.png"
   inkscape:export-xdpi="96"
   inkscape:export-ydpi="96"
   xmlns:inkscape="http://www.inkscape.org/namespaces/inkscape"
   xmlns:sodipodi="http://sodipodi.sourceforge.net/DTD/sodipodi-0.dtd"
   xmlns="http://www.w3.org/2000/svg"
   xmlns:svg="http://www.w3.org/2000/svg">
  <sodipodi:namedview
     id="namedview7"
     pagecolor="#505050"
     bordercolor="#ffffff"
     borderopacity="1"
     inkscape:showpageshadow="0"
     inkscape:pageopacity="0"
     inkscape:pagecheckerboard="1"
     inkscape:deskcolor="#505050"
     inkscape:document-units="px"
     showgrid="false"
     inkscape:zoom="4.9166667"
     inkscape:cx="2.8474576"
     inkscape:cy="24.101695"
     inkscape:window-width="1366"
     inkscape:window-height="708"
     inkscape:window-x="0"
     inkscape:window-y="28"
     inkscape:window-maximized="1"
     inkscape:current-layer="layer1" />
  <defs
     id="defs2" />
  <g
     inkscape:label="Layer 1"
     inkscape:groupmode="layer"
     id="layer1">
    <rect
       style="fill:#000000;fill-rule:evenodd;stroke-width:9.86837;stroke-opacity:0"
       id="rect234"
       width="48"
       height="48"
       x="0"
       y="0"
       inkscape:label="background" />
    <g
       aria-label="CH"
       id="text952"
       style="font-size:48px;line-height:1.25;font-family:Pacifico;-inkscape-font-specification:'Pacifico, Normal';text-align:center;text-anchor:middle"
       transform="matrix(0.51287685,0,0,0.51287685,35.595836,12.870755)">
      <path
         d="m -42.91337,42.819643 q -5.712,0 -9.936,-2.064 -4.224,-2.112 -6.48,-5.952 -2.256,-3.84 -2.256,-8.928 0,-7.056 2.64,-12.528 2.688,-5.4719998 7.248,-8.4479998 4.56,-3.024 10.128,-3.024 5.184,0 7.872,2.688 2.688,2.64 2.688,7.0079998 0,2.928 -1.056,4.704 -1.008,1.776 -2.928,1.776 -1.344,0 -2.112,-0.624 -0.768,-0.624 -0.768,-1.824 0,-0.432 0.192,-1.584 0.288,-1.44 0.288,-2.304 0,-4.3679998 -4.656,-4.3679998 -3.168,0 -6.048,2.064 -2.88,2.0639998 -4.656,6.0959998 -1.776,3.984 -1.776,9.504 0,5.76 3.216,8.928 3.216,3.12 9.504,3.12 3.12,0 6.288,-0.768 3.216,-0.816 7.104,-2.448 0.72,-0.288 1.2,-0.288 0.768,0 1.152,0.576 0.384,0.576 0.384,1.488 0,2.928 -3.168,4.32 -3.408,1.488 -7.104,2.208 -3.648,0.672 -6.96,0.672 z"
         id="path1004"
         style="fill:#ffffff"
         inkscape:label="C" />
      <path
         d="m 15.022578,31.875643 q 0.624,0 0.96,0.576 0.384,0.576 0.384,1.584 0,1.872 -0.912,2.976 -4.752,5.808 -10.1279996,5.808 -4.65600002,0 -7.44,-3.6 -2.784,-3.6 -2.784,-10.32 0,-1.632 0.144,-3.264 -3.168,0.576 -6.9120004,0.864 -2.496,0.192 -3.408,0.24 -0.96,4.896 -2.688,12 -1.008,4.176 -3.84,4.176 -3.072,0 -3.072,-2.784 0,-0.624 0.24,-1.728 1.632,-6.576 2.592,-11.136 l -2.304,0.096 q -1.584,0 -2.304,-0.528 -0.72,-0.576 -0.72,-1.824 0,-1.584 0.912,-2.304 0.912,-0.768 3.024,-0.864 l 2.544,-0.096 q 1.248,-6.768 1.248,-10.32 0,-2.2559998 -0.672,-3.0719998 -0.672,-0.816 -1.776,-0.816 -3.36,0 -7.584,5.6159998 -0.624,0.816 -1.392,0.816 -0.672,0 -1.152,-0.624 -0.48,-0.624 -0.48,-1.584 0,-1.488 1.2,-3.1679998 2.112,-2.928 5.328,-4.8 3.216,-1.92 6.528,-1.92 3.12,0 4.8,2.16 1.728,2.112 1.728,6.6239998 0,3.984 -1.152,10.8 l 4.7040004,-0.24 q 3.024,-0.144 5.184,-0.48 0.864,-5.28 2.64,-9.888 1.77599998,-4.6079998 4.416,-7.4879998 2.64,-2.87999995 5.904,-2.87999995 2.3999996,0 3.7919996,1.91999995 1.392,1.872 1.392,4.944 0,11.9039998 -12.1439996,16.5119998 -0.144,1.92 -0.144,3.984 0,5.04 1.248,7.152 1.248,2.112 3.504,2.112 1.968,0 3.5999996,-1.008 1.632,-1.056 3.696,-3.552 0.576,-0.672 1.296,-0.672 z M 8.5425784,4.6596432 q -1.056,0 -2.256,1.92 -1.152,1.92 -2.208,5.2319998 -1.056,3.312 -1.68,7.248 3.84,-1.584 5.664,-4.512 1.824,-2.928 1.824,-7.5359998 0,-1.104 -0.384,-1.728 -0.384,-0.624 -0.96,-0.624 z"
         id="path1006"
         inkscape:label="H"
         style="fill:#ff9494;fill-opacity:1" />
    </g>
  </g>
</svg>
